HIERARCHY
ROOT Hips
{
    OFFSET 0.000000 0.000000 0.000000
    CHANNELS 6 Xposition Yposition Zposition Zrotation Xrotation Yrotation
    JOINT Spine
    {
        OFFSET -0.000000 7.236184 0.000000
        CHANNELS 3 Zrotation Xrotation Yrotation
        JOINT Spine1
        {
            OFFSET -0.000000 20.420147 0.000000
            CHANNELS 3 Zrotation Xrotation Yrotation
            JOINT Neck
            {
                OFFSET -0.000000 20.336288 1.848754
                CHANNELS 3 Zrotation Xrotation Yrotation
                JOINT Head
                {
                    OFFSET -0.000000 12.354461 -1.764923
                    CHANNELS 3 Zrotation Xrotation Yrotation
                    End Site
                    {
                        OFFSET -0.000000 22.061537 0.000000
                    }
                }
            }
            JOINT LeftShoulder
            {
                OFFSET 3.573296 18.396038 -0.314103
                CHANNELS 3 Zrotation Xrotation Yrotation
                JOINT LeftArm
                {
                    OFFSET 10.880760 0.000000 0.000000
                    CHANNELS 3 Zrotation Xrotation Yrotation
                    JOINT LeftForeArm
                    {
                        OFFSET 27.185530 0.000000 0.000000
                        CHANNELS 3 Zrotation Xrotation Yrotation
                        JOINT LeftHand
                        {
                            OFFSET 27.825975 0.000000 0.000000
                            CHANNELS 3 Zrotation Xrotation Yrotation
                            End Site
                            {
                                OFFSET 13.236923 0.000000 0.000000
                            }
                        }
                    }
                }
            }
            JOINT RightShoulder
            {
                OFFSET -3.474926 18.396038 -0.314103
                CHANNELS 3 Zrotation Xrotation Yrotation
                JOINT RightArm
                {
                    OFFSET -10.880760 0.000000 0.000000
                    CHANNELS 3 Zrotation Xrotation Yrotation
                    JOINT RightForeArm
                    {
                        OFFSET -27.185530 0.000000 0.000000
                        CHANNELS 3 Zrotation Xrotation Yrotation
                        JOINT RightHand
                        {
                            OFFSET -27.825975 0.000000 0.000000
                            CHANNELS 3 Zrotation Xrotation Yrotation
                            End Site
                            {
                                OFFSET -13.236923 0.000000 0.000000
                            }
                        }
                    }
                }
            }
        }
    }
    JOINT LeftUpLeg
    {
        OFFSET 8.824615 0.000000 0.000000
        CHANNELS 3 Zrotation Xrotation Yrotation
        JOINT LeftLeg
        {
            OFFSET -0.000000 -35.111282 0.000000
            CHANNELS 3 Zrotation Xrotation Yrotation
            JOINT LeftFoot
            {
                OFFSET -0.000000 -42.324711 0.000000
                CHANNELS 3 Zrotation Xrotation Yrotation
                JOINT LeftToeBase
                {
                    OFFSET -0.000000 -5.735999 13.236923
                    CHANNELS 3 Zrotation Xrotation Yrotation
                    End Site
                    {
                        OFFSET -0.000000 0.000000 3.529846
                    }
                }
            }
        }
    }
    JOINT RightUpLeg
    {
        OFFSET -8.824615 0.000000 0.000000
        CHANNELS 3 Zrotation Xrotation Yrotation
        JOINT RightLeg
        {
            OFFSET -0.000000 -35.111282 0.000000
            CHANNELS 3 Zrotation Xrotation Yrotation
            JOINT RightFoot
            {
                OFFSET -0.000000 -42.324711 0.000000
                CHANNELS 3 Zrotation Xrotation Yrotation
                JOINT RightToeBase
                {
                    OFFSET -0.000000 -5.735999 13.236923
                    CHANNELS 3 Zrotation Xrotation Yrotation
                    End Site
                    {
                        OFFSET -0.000000 0.000000 3.529846
                    }
                }
            }
        }
    }
}
MOTION
Frames:    6
Frame Time:    0.008333
-5.840600    81.670204    102.275276    0.272291    -5.365278    -177.661224    -0.876672    -8.804181    0.844145    -2.815677    3.584260    0.999763    0.774373    8.899575    -3.421968    -2.400249    -18.358847    -4.325068    -4.979700    18.450176    -1.538298    -43.803192    38.570217    -40.097694    21.875607    -4.451958    -30.179729    37.553009    -0.730530    -6.611971    8.149993    17.421738    -7.011006    42.363087    41.738297    39.027660    -26.204533    -9.878811    39.706585    -38.253559    -1.893296    4.664671    3.308905    -18.711184    -1.984716    1.460865    30.552561    5.519230    -7.282018    -13.916555    -13.160549    -0.614475    -1.835450    0.683414    -3.315347    -15.613138    1.168282    0.570330    26.554457    7.166080    -1.214218    -11.839297    -14.517162    -1.800669    -1.555023    1.951750    
-5.713784    81.635429    102.260765    0.216869    -5.292403    -177.654663    -0.794809    -8.831820    0.827813    -2.735255    3.863416    0.981451    0.807545    8.757157    -3.124986    -3.463794    -18.675938    -4.345310    -4.988781    18.482969    -1.734348    -43.321941    39.041149    -40.641685    21.967907    -4.268466    -29.854279    37.818253    -0.649631    -6.739840    8.206445    17.560476    -6.842992    41.444756    42.259068    39.872528    -26.188391    -9.716184    39.639236    -38.296696    -1.806877    4.814922    3.343734    -18.693895    -1.987961    1.462239    30.660612    5.559618    -7.331554    -13.939135    -13.209171    -0.621878    -1.867511    0.691689    -3.270942    -15.635967    1.172411    0.566916    26.756218    7.188838    -1.295068    -11.927811    -14.573621    -1.816202    -1.517335    1.968481    
-5.587532    81.606438    102.242752    0.159783    -5.229576    -177.645538    -0.710221    -8.864889    0.809081    -2.653270    4.120245    0.959634    0.838062    8.662727    -2.821185    -4.561164    -19.030985    -4.375566    -4.983231    18.498476    -1.894227    -42.925739    39.381207    -41.052399    22.036829    -4.051676    -29.549105    38.076233    -0.539911    -6.872546    8.248152    17.689188    -6.705090    40.622234    42.644295    40.568630    -26.146595    -9.505954    39.636040    -38.333267    -1.670301    4.984948    3.377706    -18.666061    -1.989404    1.462034    30.735941    5.591854    -7.379380    -13.952629    -13.252977    -0.628582    -1.895712    0.699182    -3.230816    -15.645927    1.179415    0.567930    26.921484    7.200005    -1.374813    -12.003375    -14.623677    -1.828928    -1.483683    1.982181    
-5.461895    81.583405    102.221153    0.100678    -5.177565    -177.633362    -0.622874    -8.903555    0.787144    -2.569970    4.352443    0.933382    0.862858    8.618130    -2.510979    -5.689308    -19.421291    -4.416398    -4.965552    18.497681    -2.014533    -42.630638    39.588528    -41.317078    22.077656    -3.806061    -29.263853    38.326351    -0.406758    -7.009478    8.275657    17.807508    -6.599058    39.911758    42.901409    41.104954    -26.080406    -9.256064    39.691685    -38.365200    -1.494124    5.168716    3.410272    -18.628160    -1.988106    1.461006    30.777781    5.614776    -7.425594    -13.957038    -13.292301    -0.634129    -1.918707    0.705382    -3.195614    -15.643485    1.189464    0.573941    27.049938    7.198973    -1.453798    -12.065906    -14.667355    -1.838466    -1.454093    1.992433    
-5.335818    81.566391    102.195618    0.039165    -5.136162    -177.617676    -0.531299    -8.947660    0.761159    -2.485012    4.559448    0.901667    0.878134    8.625132    -2.192395    -6.853511    -19.847431    -4.468464    -4.937754    18.481180    -2.092962    -42.446407    39.661877    -41.426472    22.085331    -3.534091    -28.995325    38.569164    -0.254563    -7.150748    8.289119    17.915569    -6.525879    39.321167    43.037434    41.475346    -25.987019    -8.973372    39.802860    -38.393623    -1.284258    5.364547    3.441915    -18.579464    -1.983039    1.459560    30.785538    5.627314    -7.471354    -13.952422    -13.327703    -0.637817    -1.935938    0.709507    -3.165001    -15.628441    1.202808    0.585185    27.142181    7.185709    -1.531935    -12.116123    -14.705093    -1.844585    -1.428785    1.998993    
-5.211580    81.555786    102.166580    -0.023615    -5.106213    -177.598618    -0.436613    -8.996044    0.731004    -2.400335    4.736171    0.864691    0.880318    8.684052    -1.872100    -8.028693    -20.298649    -4.531359    -4.902338    18.449736    -2.126514    -42.378960    39.602493    -41.375977    22.056046    -3.246138    -28.746552    38.797825    -0.091971    -7.292415    8.288084    18.010881    -6.486491    38.867474    43.056339    41.669575    -25.867369    -8.670534    39.962650    -38.417881    -1.053361    5.565396    3.472214    -18.521053    -1.974126    1.457520    30.759092    5.629261    -7.515686    -13.939219    -13.358576    -0.639043    -1.945500    0.710883    -3.139444    -15.601468    1.218794    0.601074    27.197327    7.161414    -1.606649    -12.153913    -14.736442    -1.847114    -1.407852    2.001676    
